<svg width="264" height="280" viewBox="0 0 264 280" fill="none" xmlns="http://www.w3.org/2000/svg">
<g clip-path="url(#clip0_12_65)">
<mask id="mask0_12_65" style="mask-type:alpha" maskUnits="userSpaceOnUse" x="12" y="40" width="240" height="240">
<path d="M132 280C198.274 280 252 226.274 252 160C252 93.7258 198.274 40 132 40C65.7258 40 12 93.7258 12 160C12 226.274 65.7258 280 132 280Z" fill="white"/>
</mask>
<g mask="url(#mask0_12_65)">
<path d="M132 280C198.274 280 252 226.274 252 160C252 93.7258 198.274 40 132 40C65.7258 40 12 93.7258 12 160C12 226.274 65.7258 280 132 280Z" fill="#E6E6E6"/>
<path d="M252 40H12V280H252V40Z" fill="#003E9B"/>
</g>
<mask id="mask1_12_65" style="mask-type:alpha" maskUnits="userSpaceOnUse" x="0" y="0" width="264" height="280">
<path d="M12 160C12 226.274 65.7258 280 132 280C198.274 280 252 226.274 252 160H264V0H0V160H12Z" fill="white"/>
</mask>
<g mask="url(#mask1_12_65)">
<mask id="mask2_12_65" style="mask-type:alpha" maskUnits="userSpaceOnUse" x="32" y="36" width="200" height="244">
<path d="M156 180.611V199H160C199.765 199 232 231.235 232 271V280H32V271C32 231.235 64.2355 199 104 199H108V180.611C90.7626 172.422 78.3722 155.687 76.3051 135.881C70.4803 135.058 66 130.052 66 124V110C66 104.054 70.3246 99.1181 76 98.1659V92C76 61.0721 101.072 36 132 36C162.928 36 188 61.0721 188 92V98.1659C193.675 99.1181 198 104.054 198 110V124C198 130.052 193.52 135.058 187.695 135.881C185.628 155.687 173.237 172.422 156 180.611Z" fill="white"/>
</mask>
<g mask="url(#mask2_12_65)">
<path d="M156 180.611V199H160C199.765 199 232 231.235 232 271V280H32V271C32 231.235 64.2355 199 104 199H108V180.611C90.7626 172.422 78.3722 155.687 76.3051 135.881C70.4803 135.058 66 130.052 66 124V110C66 104.054 70.3246 99.1181 76 98.1659V92C76 61.0721 101.072 36 132 36C162.928 36 188 61.0721 188 92V98.1659C193.675 99.1181 198 104.054 198 110V124C198 130.052 193.52 135.058 187.695 135.881C185.628 155.687 173.237 172.422 156 180.611Z" fill="#D0C6AC"/>
<path d="M296 36H32V316H296V36Z" fill="#FFDBB4"/>
<path fill-rule="evenodd" clip-rule="evenodd" d="M188 115V138C188 168.928 162.928 194 132 194C101.072 194 76 168.928 76 138V115V130C76 160.928 101.072 186 132 186C162.928 186 188 160.928 188 130V115Z" fill="black" fill-opacity="0.1"/>
</g>
<mask id="mask3_12_65" style="mask-type:alpha" maskUnits="userSpaceOnUse" x="32" y="183" width="200" height="97">
<path fill-rule="evenodd" clip-rule="evenodd" d="M108 183.071C90.0813 185.076 76.2798 190.552 76.0042 204.645C50.1464 215.568 32 241.165 32 270.999V280H232V270.999C232 241.165 213.854 215.568 187.996 204.645C187.72 190.552 173.919 185.076 156 183.071V202C156 215.255 145.255 226 132 226C118.745 226 108 215.255 108 202V183.071Z" fill="white"/>
</mask>
<g mask="url(#mask3_12_65)">
<path fill-rule="evenodd" clip-rule="evenodd" d="M108 183.071C90.0813 185.076 76.2798 190.552 76.0042 204.645C50.1464 215.568 32 241.165 32 270.999V280H232V270.999C232 241.165 213.854 215.568 187.996 204.645C187.72 190.552 173.919 185.076 156 183.071V202C156 215.255 145.255 226 132 226C118.745 226 108 215.255 108 202V183.071Z" fill="#B7C1DB"/>
<path d="M264 170H0V280H264V170Z" fill="#D3D3D3"/>
<path fill-rule="evenodd" clip-rule="evenodd" d="M102 231.739V280H95V228.15C97.2038 229.46 99.5468 230.661 102 231.739ZM169 228.15V268.5C169 270.433 167.433 272 165.5 272C163.567 272 162 270.433 162 268.5V231.739C164.453 230.661 166.796 229.46 169 228.15Z" fill="#003E9B"/>
<path fill-rule="evenodd" clip-rule="evenodd" d="M90.9601 182.724C75.9093 185.571 65.5 191.243 65.5 202.308C65.5 222.02 98.5377 238 132 238C165.462 238 198.5 222.02 198.5 202.308C198.5 191.243 188.091 185.571 173.04 182.724C182.125 186.074 188 191.706 188 201.077C188 221.469 160.179 238 132 238C103.821 238 76 221.469 76 201.077C76 191.706 81.8751 186.074 90.9601 182.724Z" fill="black" fill-opacity="0.16"/>
</g>
<mask id="mask4_12_65" style="mask-type:alpha" maskUnits="userSpaceOnUse" x="0" y="0" width="264" height="280">
<path d="M264 0H0V280H264V0Z" fill="white"/>
</mask>
<g mask="url(#mask4_12_65)">
<mask id="mask5_12_65" style="mask-type:alpha" maskUnits="userSpaceOnUse" x="72" y="19" width="118" height="82">
<path fill-rule="evenodd" clip-rule="evenodd" d="M185.832 73.9287C187.589 74.9174 188.98 84.8279 189.048 88.6177C189.09 90.9562 189.127 99.874 186.654 99.1031C185.901 98.8684 184.752 94.1472 184.588 91.3841C184.425 88.6209 182.855 79.22 180.447 74.8947C179.896 73.9063 178.321 72.1709 179.002 71.3348C179.846 70.2981 180.666 70.8996 181.697 71.3147C182.812 71.7642 185.634 73.818 185.832 73.9287ZM186.637 70.9566C185.891 71.9188 180.796 69.2177 178.671 68.044C160.826 58.1841 157.362 55.0487 129.246 55.4578C101.13 55.867 81.8675 69.04 80.784 70.3874C80.0302 71.3249 79.0678 73.8279 78.2764 80.8005C77.485 87.7732 78.4952 100.278 75.6305 100.263C73.1915 100.25 72.6609 76.477 73.7137 67.0464C73.8754 65.5985 74.4984 63.0084 74.0474 61.7059C73.6533 60.5682 71.7254 60.5706 72.0331 58.6751C72.3829 56.5173 74.5585 57.5891 75.506 56.5574C77.3006 54.603 74.5322 54.1404 74.073 52.4307C73.3906 49.8892 75.3628 49.2337 77.1397 48.4311C79.106 47.5438 78.8505 48.3231 80.4464 46.5849C78.3148 45.0225 77.5436 42.8939 80.4624 41.752C81.702 41.2669 84.9269 41.9089 85.8981 41.1802C86.1513 40.9901 86.2515 39.9008 86.4075 39.678C87.9584 37.4594 87.5757 35.8532 87.4184 33.3624C87.289 31.3242 87.3064 29.4532 89.7467 29.2496C91.3751 29.1139 92.6993 30.4442 94.1582 30.8359C95.7768 31.2706 95.1688 31.5878 96.4369 30.715C98.6631 29.1817 97.148 26.1943 98.9133 24.412C101.336 21.9662 102.924 25.5513 104.869 25.8218C109.091 26.4102 107.736 22.1219 110.236 20.5505C113.224 18.6739 113.513 22.8013 115.379 22.9483C116.996 23.0751 119.908 19.9545 121.317 19.3731C125.5 17.6472 127.572 22.5039 131.554 21.8845C134.443 21.4348 135.223 21.0677 137.831 22.7115C140.362 24.3071 140.963 23.1665 143.829 23.1436C145.854 23.1284 147.094 24.8203 148.788 24.9967C149.632 25.0851 150.441 24.2051 151.348 24.2604C154.585 24.4567 154.79 28.643 157.362 29.7956C159.712 30.8488 162.474 29.3691 164.807 29.0953C170.497 28.4275 166.6 33.7425 166.761 36.9147C168.994 37.4359 171.262 35.351 173.485 35.7347C176.987 36.3393 175.665 39.968 174.853 42.4145C177.28 42.3708 183.613 39.6777 185.185 43.122C185.995 44.898 184.107 47.269 184.138 49.0744C184.181 51.6159 186.049 53.7186 186.709 56.124C187.601 59.371 188.872 68.074 186.637 70.9566Z" fill="white"/>
</mask>
<g mask="url(#mask5_12_65)">
<path fill-rule="evenodd" clip-rule="evenodd" d="M185.832 73.9287C187.589 74.9174 188.98 84.8279 189.048 88.6177C189.09 90.9562 189.127 99.874 186.654 99.1031C185.901 98.8684 184.752 94.1472 184.588 91.3841C184.425 88.6209 182.855 79.22 180.447 74.8947C179.896 73.9063 178.321 72.1709 179.002 71.3348C179.846 70.2981 180.666 70.8996 181.697 71.3147C182.812 71.7642 185.634 73.818 185.832 73.9287ZM186.637 70.9566C185.891 71.9188 180.796 69.2177 178.671 68.044C160.826 58.1841 157.362 55.0487 129.246 55.4578C101.13 55.867 81.8675 69.04 80.784 70.3874C80.0302 71.3249 79.0678 73.8279 78.2764 80.8005C77.485 87.7732 78.4952 100.278 75.6305 100.263C73.1915 100.25 72.6609 76.477 73.7137 67.0464C73.8754 65.5985 74.4984 63.0084 74.0474 61.7059C73.6533 60.5682 71.7254 60.5706 72.0331 58.6751C72.3829 56.5173 74.5585 57.5891 75.506 56.5574C77.3006 54.603 74.5322 54.1404 74.073 52.4307C73.3906 49.8892 75.3628 49.2337 77.1397 48.4311C79.106 47.5438 78.8505 48.3231 80.4464 46.5849C78.3148 45.0225 77.5436 42.8939 80.4624 41.752C81.702 41.2669 84.9269 41.9089 85.8981 41.1802C86.1513 40.9901 86.2515 39.9008 86.4075 39.678C87.9584 37.4594 87.5757 35.8532 87.4184 33.3624C87.289 31.3242 87.3064 29.4532 89.7467 29.2496C91.3751 29.1139 92.6993 30.4442 94.1582 30.8359C95.7768 31.2706 95.1688 31.5878 96.4369 30.715C98.6631 29.1817 97.148 26.1943 98.9133 24.412C101.336 21.9662 102.924 25.5513 104.869 25.8218C109.091 26.4102 107.736 22.1219 110.236 20.5505C113.224 18.6739 113.513 22.8013 115.379 22.9483C116.996 23.0751 119.908 19.9545 121.317 19.3731C125.5 17.6472 127.572 22.5039 131.554 21.8845C134.443 21.4348 135.223 21.0677 137.831 22.7115C140.362 24.3071 140.963 23.1665 143.829 23.1436C145.854 23.1284 147.094 24.8203 148.788 24.9967C149.632 25.0851 150.441 24.2051 151.348 24.2604C154.585 24.4567 154.79 28.643 157.362 29.7956C159.712 30.8488 162.474 29.3691 164.807 29.0953C170.497 28.4275 166.6 33.7425 166.761 36.9147C168.994 37.4359 171.262 35.351 173.485 35.7347C176.987 36.3393 175.665 39.968 174.853 42.4145C177.28 42.3708 183.613 39.6777 185.185 43.122C185.995 44.898 184.107 47.269 184.138 49.0744C184.181 51.6159 186.049 53.7186 186.709 56.124C187.601 59.371 188.872 68.074 186.637 70.9566Z" fill="#2E3257"/>
<path d="M264 0H0V280H264V0Z" fill="#724133"/>
</g>
</g>
</g>
<path d="M182.603 63.8669C182.483 64.3135 182.269 64.7255 182.269 65.1946C182.269 65.4342 182.153 65.5972 182.069 65.8176C181.952 66.1231 181.934 66.4398 181.769 66.7336C181.668 66.9122 181.602 67.0592 181.602 67.2713C181.602 68.2599 181.635 69.2528 181.669 70.2232C181.682 70.622 181.923 71.0123 181.936 71.4247C181.944 71.6893 181.999 71.9551 182.106 72.1998C182.164 72.3315 182.407 72.37 182.503 72.541C182.551 72.6258 182.873 72.8039 182.774 72.9155C182.59 73.1218 182.312 72.6998 182.269 72.5892C181.908 71.65 181.936 70.6547 181.936 69.6706C181.936 69.2468 182.056 69.3965 182.284 69.6892C182.632 70.1351 182.854 70.6392 183.063 71.1614C183.117 71.2966 183.536 73.2493 183.738 73.2493C183.846 73.2493 183.695 73.0364 183.671 72.9304C183.624 72.7198 183.562 72.5109 183.538 72.2962C183.481 71.7997 183.471 71.3159 183.471 70.8166C183.471 70.4515 183.583 70.1222 183.671 69.7708C183.706 69.6308 183.946 68.7113 183.953 68.7176C184.374 69.1049 184.358 70.1212 184.446 70.6311C184.534 71.1353 184.624 71.6019 184.687 72.1071C184.759 72.6845 184.873 73.2062 184.873 73.7907C184.873 74.2686 184.873 74.8011 184.806 75.2741C184.684 76.1285 184.628 73.5557 184.602 72.693C184.568 71.6024 184.405 70.5425 184.405 69.4481C184.405 69.0137 184.637 68.6677 184.791 68.2726C184.941 67.8888 185.144 67.558 185.351 67.2045C185.473 66.9968 185.407 67.4988 185.407 67.5531C185.401 68.1243 185.331 68.7093 185.103 69.2293C184.876 69.7453 184.873 70.1525 184.873 70.7127C184.873 71.189 184.682 71.7206 184.572 72.1813C184.465 72.6315 184.472 73.1143 184.472 73.5756C184.472 74.1975 184.671 74.6488 184.836 75.237C184.85 75.2887 184.893 75.6639 184.806 75.4373C184.657 75.0518 184.606 74.6088 184.606 74.1987C184.606 73.6374 184.606 73.0762 184.606 72.515C184.606 71.7597 184.606 71.0045 184.606 70.2492C184.606 69.9947 184.591 69.7355 184.606 69.4815C184.613 69.3588 184.965 70.1043 184.999 70.1787C185.35 70.9645 185.453 71.8076 185.711 72.6189C185.794 72.8808 185.908 73.1322 185.933 73.4088C185.948 73.5657 185.913 73.7412 185.955 73.8946C186.094 74.3983 185.914 74.9439 186.044 75.4484C186.153 75.8671 186.202 76.2152 186.208 76.6536C186.213 77.0148 186.408 77.3171 186.408 77.6809C186.408 78.266 186.608 78.8359 186.608 79.4053C186.608 80.4519 186.588 81.4844 186.875 82.4907" stroke="#724133" stroke-width="3" stroke-linecap="round"/>
<path d="M184.472 66.1366C184.876 67.1214 185.01 68.1922 185.251 69.222C185.398 69.8502 185.44 70.4437 185.477 71.08C185.496 71.4028 185.643 71.7031 185.67 72.0219C185.703 72.4178 185.781 72.8013 185.822 73.1975C185.848 73.4465 185.85 73.7485 185.97 73.9725C186.27 74.5297 186.163 75.1936 186.289 75.7785C186.515 76.8233 186.475 77.8546 186.475 78.9196C186.475 79.466 186.475 80.0123 186.475 80.5587C186.475 81.0691 186.71 81.5308 186.808 82.0236" stroke="#724133" stroke-width="3" stroke-linecap="round"/>
<path d="M182.002 68.0724C182.002 68.7309 182.095 69.541 182.562 70.0601C183.156 70.72 181.644 68.5391 181.231 67.7535C180.884 67.0952 180.643 66.2409 180.2 65.6397C180.141 65.5595 179.669 64.8796 179.629 64.9277C179.547 65.0255 179.699 65.3153 179.733 65.4023C179.906 65.8451 180.078 66.2709 180.196 66.7337C180.553 68.1318 181.183 69.444 181.498 70.8463C181.558 71.1134 181.708 71.6058 181.446 71.1022C181.033 70.3088 180.705 69.4481 180.252 68.6806C179.932 68.1385 179.604 67.5999 179.306 67.0452C179.038 66.5446 178.689 66.1037 178.435 65.6026C178.398 65.5302 178.29 65.2451 178.212 65.2095C178.165 65.1879 178.342 65.93 178.357 65.9623C178.728 66.7484 179.192 67.514 179.666 68.243C180.173 69.0225 180.388 69.9014 180.808 70.7054C180.915 70.9098 181.751 72.478 181.368 72.478C180.87 72.478 180.701 72.3023 180.537 71.7846C180.424 71.4242 180.133 70.8906 179.829 70.6424C179.443 70.3263 179.25 69.7415 179.191 69.2294C179.165 68.9962 178.998 68.8182 178.998 68.5916C178.998 68.2745 178.843 68.0892 178.798 67.8054C178.77 67.6254 178.521 67.2868 178.431 67.1119C178.306 66.8676 178.149 66.6321 177.997 66.4036C177.772 66.0656 177.432 65.8011 177.144 65.5136C176.755 65.1246 176.413 64.6901 176.061 64.2676" stroke="#724133" stroke-width="3" stroke-linecap="round"/>
<path d="M175.728 65.2021C176.484 65.3681 176.901 66.2722 177.278 66.8857C177.692 67.5614 178.145 68.2262 178.427 68.9699C178.634 69.5135 179.207 69.942 179.436 70.4903C179.633 70.9612 180.142 71.0643 180.333 71.5435" stroke="#724133" stroke-width="3" stroke-linecap="round"/>
<path d="M181.201 72.478C181.019 72.4424 180.85 72.4215 180.667 72.4113C180.42 72.3976 180.332 71.9022 180.17 71.7549C179.879 71.4901 179.707 71.0144 179.57 70.6424C179.289 69.8802 178.871 69.197 178.583 68.4358C178.225 67.49 177.669 66.718 176.992 65.9734C176.733 65.6878 176.238 65.4396 175.906 65.2466C175.481 64.9995 175.106 64.715 174.697 64.4381C174.203 64.1044 173.854 63.74 173.432 63.3404C173.3 63.215 173.244 63.0159 173.124 62.8658" stroke="#724133" stroke-width="3" stroke-linecap="round"/>
<path d="M129 5.49998C102.5 -3.50002 73.3882 20.5581 77.9999 62L139 48.5L185 55.5C186.5 31.5 173.76 14.9825 154 12L139 7.49998L129 5.49998Z" fill="#724133"/>
<path d="M112 160C128.012 162.753 136.993 162.578 153 160" stroke="black" stroke-width="2"/>
<path d="M160 180.5L188 142.5V170.5L160 180.5Z" fill="#003E9B" stroke="#003E9B"/>
<path d="M103.5 180L74.5 141.5V169.5L103.5 180Z" fill="#003E9B" stroke="#003E9B" stroke-width="0.8"/>
<path d="M182.5 151L188 137V148.5L182.5 151Z" fill="#003E9B" stroke="#003E9B" stroke-width="0.8"/>
<path d="M81 150L75.5 137L74 148L81 150Z" fill="#003E9B" stroke="#003E9B" stroke-width="0.8"/>
<path d="M185 52L189.5 97L198 77.5L185 52Z" fill="#003E9B" stroke="#003E9B" stroke-width="0.8"/>
<path d="M181.807 51.5636C181.909 51.6273 182.038 51.7887 182.159 51.8157C182.294 51.8457 182.385 51.8362 182.474 51.9614C182.552 52.0708 182.614 52.3694 182.753 52.3826C182.868 52.3935 182.963 52.4328 183.082 52.4374C183.166 52.4406 183.258 52.5014 183.343 52.5204C183.421 52.5376 183.571 52.4896 183.639 52.4593C183.73 52.419 183.72 52.3898 183.625 52.4108C183.553 52.4269 183.462 52.4964 183.385 52.5219" fill="#003E9B"/>
<path d="M181.807 51.5636C181.909 51.6273 182.038 51.7887 182.159 51.8157C182.294 51.8457 182.385 51.8362 182.474 51.9614C182.552 52.0708 182.614 52.3694 182.753 52.3826C182.868 52.3935 182.963 52.4328 183.082 52.4374C183.166 52.4406 183.258 52.5014 183.343 52.5204C183.421 52.5376 183.571 52.4896 183.639 52.4593C183.73 52.419 183.72 52.3898 183.625 52.4108C183.553 52.4269 183.462 52.4964 183.385 52.5219" stroke="#724133" stroke-width="3" stroke-linecap="round"/>
<path d="M182.991 53.142C183.097 53.2453 183.203 53.2637 183.329 53.3268C183.423 53.3737 183.446 53.3957 183.555 53.3957" fill="#003E9B"/>
<path d="M182.991 53.142C183.097 53.2453 183.203 53.2637 183.329 53.3268C183.423 53.3737 183.446 53.3957 183.555 53.3957" stroke="#724133" stroke-width="3" stroke-linecap="round"/>
<path d="M183.216 54.3259H183.47Z" fill="#003E9B"/>
<path d="M183.216 54.3259H183.47" stroke="#724133" stroke-width="3" stroke-linecap="round"/>
<path d="M183.188 55.2278C183.313 55.2521 183.369 55.2278 183.47 55.2278Z" fill="#003E9B"/>
<path d="M183.188 55.2278C183.313 55.2521 183.369 55.2278 183.47 55.2278" stroke="#724133" stroke-width="3" stroke-linecap="round"/>
<path d="M113 182.5V172C123.051 185.149 146.038 179.088 151.5 172V182.5C136.785 186.712 128.378 187.036 113 182.5Z" fill="black" fill-opacity="0.52"/>
<path d="M132.5 149L114 153V155.5L132.5 153.5L152.5 155.5V153L132.5 149Z" fill="#7A6956"/>
</g>
<defs>
<clipPath id="clip0_12_65">
<rect width="264" height="280" fill="white"/>
</clipPath>
</defs>
</svg>
